<svg version="1.1" xmlns="http://www.w3.org/2000/svg" width="402" height="512" viewBox="0 0 402 512"><title>close</title><path d="M370.857 377.714c0 7.143-2.857 14.286-8 19.428l-38.857 38.857c-5.143 5.143-12.286 8-19.428 8s-14.286-2.857-19.428-8l-84-84-84 84c-5.143 5.143-12.285 8-19.428 8s-14.285-2.857-19.428-8l-38.857-38.857c-5.143-5.143-8-12.286-8-19.428s2.857-14.286 8-19.428l84-84-84-84c-5.143-5.143-8-12.286-8-19.428s2.857-14.286 8-19.428l38.857-38.857c5.143-5.143 12.285-8 19.428-8s14.285 2.857 19.428 8l84 84 84-84c5.143-5.143 12.286-8 19.428-8s14.286 2.857 19.428 8l38.857 38.857c5.143 5.143 8 12.286 8 19.428s-2.857 14.286-8 19.428l-84 84 84 84c5.143 5.143 8 12.286 8 19.428z"></path></svg>